<svg xmlns="http://www.w3.org/2000/svg" xmlns:xlink="http://www.w3.org/1999/xlink" version="1.1" x="0px" y="0px" viewBox="0 0 16 20" enable-background="new 0 0 16 16" xml:space="preserve"><path d="M14.271,4.09C14.07,2.884,13.027,2,11.805,2H10.51L10.5,1.49c0-0.01-0.005-0.018-0.006-0.027C10.462,0.627,9.403,0,8,0  C6.575,0,5.5,0.646,5.5,1.5V2H4.195C2.973,2,1.93,2.884,1.729,4.09L0.007,14.418c-0.024,0.145,0.017,0.293,0.112,0.405  C0.213,14.936,0.353,15,0.5,15h1.969c0.243,0,0.451-0.175,0.493-0.415L4,8.562V15.5C4,15.776,4.224,16,4.5,16h7  c0.276,0,0.5-0.224,0.5-0.5V8.562l1.038,6.023C13.079,14.825,13.287,15,13.531,15H15.5c0.147,0,0.286-0.064,0.382-0.177  c0.095-0.112,0.136-0.261,0.111-0.405L14.271,4.09z M8,1c0.968,0,1.5,0.375,1.5,0.5S8.968,2,8,2S6.5,1.625,6.5,1.5S7.032,1,8,1z"/><text x="0" y="31" fill="#000000" font-size="5px" font-weight="bold" font-family="'Helvetica Neue', Helvetica, Arial-Unicode, Arial, Sans-serif">Created by icon 54</text><text x="0" y="36" fill="#000000" font-size="5px" font-weight="bold" font-family="'Helvetica Neue', Helvetica, Arial-Unicode, Arial, Sans-serif">from the Noun Project</text></svg>