<svg xmlns="http://www.w3.org/2000/svg" xmlns:xlink="http://www.w3.org/1999/xlink" version="1.1" x="0px" y="0px" viewBox="0 0 16 20" enable-background="new 0 0 16 16" xml:space="preserve"><g><path d="M8,3c1.102,0,2-0.897,2-2H6C6,2.103,6.897,3,8,3z"/><path d="M15.748,3.066l-3.5-2C12.173,1.023,12.087,1,12,1h-1c0,1.654-1.346,3-3,3S5,2.654,5,1H4C3.913,1,3.828,1.023,3.752,1.066   l-3.5,2c-0.2,0.114-0.296,0.35-0.233,0.571l1,3.5c0.074,0.26,0.344,0.413,0.602,0.348L3,7.141V15.5C3,15.776,3.224,16,3.5,16h9   c0.276,0,0.5-0.224,0.5-0.5V7.141l1.379,0.344c0.258,0.066,0.527-0.088,0.602-0.348l1-3.5C16.044,3.416,15.948,3.18,15.748,3.066z"/></g><text x="0" y="31" fill="#000000" font-size="5px" font-weight="bold" font-family="'Helvetica Neue', Helvetica, Arial-Unicode, Arial, Sans-serif">Created by icon 54</text><text x="0" y="36" fill="#000000" font-size="5px" font-weight="bold" font-family="'Helvetica Neue', Helvetica, Arial-Unicode, Arial, Sans-serif">from the Noun Project</text></svg>