<svg xmlns="http://www.w3.org/2000/svg" xmlns:xlink="http://www.w3.org/1999/xlink" version="1.1" x="0px" y="0px" viewBox="0 0 16 20" enable-background="new 0 0 16 16" xml:space="preserve"><g><path d="M2.5,2h11C13.776,2,14,1.776,14,1.5v-1C14,0.224,13.776,0,13.5,0h-11C2.224,0,2,0.224,2,0.5v1C2,1.776,2.224,2,2.5,2z"/><path d="M11.669,3c0.169,0.428,0.484,0.985,1.061,1.283c0.38,0.195,0.834,0.256,1.355,0.189L13.963,3H11.669z"/><path d="M3.276,4.28C3.847,3.983,4.161,3.427,4.33,3H2.037L1.915,4.471C2.439,4.539,2.895,4.478,3.276,4.28z"/><path d="M14.167,5.465c-0.162,0.019-0.323,0.036-0.478,0.036c-0.522,0-0.999-0.111-1.428-0.334C11.221,4.625,10.783,3.584,10.61,3   H5.39C5.217,3.584,4.779,4.625,3.738,5.167C3.309,5.39,2.833,5.501,2.31,5.501c-0.154,0-0.315-0.016-0.478-0.036l-0.831,9.997   c-0.011,0.139,0.037,0.275,0.132,0.378C1.228,15.942,1.361,16,1.5,16h5c0.247,0,0.458-0.181,0.494-0.426L8,7l1.006,8.575   C9.043,15.819,9.253,16,9.5,16h5c0.14,0,0.272-0.058,0.367-0.16s0.142-0.239,0.131-0.378L14.167,5.465z"/></g><text x="0" y="31" fill="#000000" font-size="5px" font-weight="bold" font-family="'Helvetica Neue', Helvetica, Arial-Unicode, Arial, Sans-serif">Created by icon 54</text><text x="0" y="36" fill="#000000" font-size="5px" font-weight="bold" font-family="'Helvetica Neue', Helvetica, Arial-Unicode, Arial, Sans-serif">from the Noun Project</text></svg>